<?xml version="1.0" encoding="UTF-8" standalone="no"?>
<!DOCTYPE svg PUBLIC "-//W3C//DTD SVG 1.1//EN"
 "http://www.w3.org/Graphics/SVG/1.1/DTD/svg11.dtd">
<!-- Generated by graphviz version 12.2.1 (20241206.2353)
 -->
<!-- Title: links Pages: 1 -->
<svg width="496pt" height="203pt"
 viewBox="0.00 0.00 495.50 203.00" xmlns="http://www.w3.org/2000/svg" xmlns:xlink="http://www.w3.org/1999/xlink">
<g id="graph0" class="graph" transform="scale(1 1) rotate(0) translate(4 199)">
<title>links</title>
<polygon fill="white" stroke="none" points="-4,4 -4,-199 491.5,-199 491.5,4 -4,4"/>
<!-- scholar -->
<g id="node1" class="node">
<title>scholar</title>
<g id="a_node1"><a xlink:href="https://www.wikidata.org/wiki/Q5" xlink:title="Scholar">
<polygon fill="none" stroke="black" points="487.5,-90 425.75,-90 425.75,-54 487.5,-54 487.5,-90"/>
<text text-anchor="middle" x="456.62" y="-66.2" font-family="Helvetica,sans-Serif" font-size="14.00">Scholar</text>
</a>
</g>
</g>
<!-- institution -->
<g id="node2" class="node">
<title>institution</title>
<g id="a_node2"><a xlink:href="https://www.wikidata.org/wiki/Q4671277" xlink:title="Institution">
<polygon fill="none" stroke="black" points="309.12,-36 235.38,-36 235.38,0 309.12,0 309.12,-36"/>
<text text-anchor="middle" x="272.25" y="-12.2" font-family="Helvetica,sans-Serif" font-size="14.00">Institution</text>
</a>
</g>
</g>
<!-- scholar&#45;&gt;institution -->
<g id="edge4" class="edge">
<title>scholar&#45;&gt;institution</title>
<g id="a_edge4"><a xlink:href="https://www.wikidata.org/wiki/Property:P1416" xlink:title="affiliation">
<path fill="none" stroke="black" d="M425.49,-58.62C419.66,-56.26 413.56,-53.94 407.75,-52 379.19,-42.48 346.45,-34.15 320.42,-28.12"/>
<polygon fill="black" stroke="black" points="321.35,-24.74 310.82,-25.93 319.8,-31.57 321.35,-24.74"/>
</a>
</g>
<g id="a_edge4&#45;label"><a xlink:href="https://www.wikidata.org/wiki/Property:P1416" xlink:title="affiliation">
<text text-anchor="middle" x="371.75" y="-53.7" font-family="Helvetica,sans-Serif" font-size="14.00">affiliation</text>
</a>
</g>
</g>
<!-- publisher -->
<g id="node3" class="node">
<title>publisher</title>
<g id="a_node3"><a xlink:href="https://www.wikidata.org/wiki/Q96888669" xlink:title="Publisher">
<polygon fill="none" stroke="black" points="308.38,-90 236.12,-90 236.12,-54 308.38,-54 308.38,-90"/>
<text text-anchor="middle" x="272.25" y="-66.2" font-family="Helvetica,sans-Serif" font-size="14.00">Publisher</text>
</a>
</g>
</g>
<!-- paper -->
<g id="node4" class="node">
<title>paper</title>
<g id="a_node4"><a xlink:href="https://www.wikidata.org/wiki/Q13442814" xlink:title="Paper">
<polygon fill="none" stroke="black" points="483.62,-162 429.62,-162 429.62,-126 483.62,-126 483.62,-162"/>
<text text-anchor="middle" x="456.62" y="-138.2" font-family="Helvetica,sans-Serif" font-size="14.00">Paper</text>
</a>
</g>
</g>
<!-- paper&#45;&gt;scholar -->
<g id="edge3" class="edge">
<title>paper&#45;&gt;scholar</title>
<g id="a_edge3"><a xlink:href="https://www.wikidata.org/wiki/Property:P50" xlink:title="author">
<path fill="none" stroke="black" d="M456.62,-125.59C456.62,-118.28 456.62,-109.69 456.62,-101.56"/>
<polygon fill="black" stroke="black" points="460.13,-101.68 456.63,-91.68 453.13,-101.68 460.13,-101.68"/>
</a>
</g>
<g id="a_edge3&#45;label"><a xlink:href="https://www.wikidata.org/wiki/Property:P50" xlink:title="author">
<text text-anchor="middle" x="467.12" y="-102.2" font-family="Helvetica,sans-Serif" font-size="14.00">author</text>
</a>
</g>
</g>
<!-- paper&#45;&gt;paper -->
<g id="edge5" class="edge">
<title>paper&#45;&gt;paper</title>
<g id="a_edge5"><a xlink:href="https://www.wikidata.org/wiki/Property:P2860" xlink:title="cites">
<path fill="none" stroke="black" d="M471.98,-162.15C474.34,-171.54 469.22,-180 456.62,-180 449.54,-180 444.82,-177.32 442.47,-173.31"/>
<polygon fill="black" stroke="black" points="445.98,-173.23 441.43,-163.66 439.02,-173.97 445.98,-173.23"/>
</a>
</g>
<g id="a_edge5&#45;label"><a xlink:href="https://www.wikidata.org/wiki/Property:P2860" xlink:title="cites">
<text text-anchor="middle" x="456.62" y="-181.7" font-family="Helvetica,sans-Serif" font-size="14.00">cites</text>
</a>
</g>
</g>
<!-- proceedings -->
<g id="node5" class="node">
<title>proceedings</title>
<g id="a_node5"><a xlink:href="https://www.wikidata.org/wiki/Q1143604" xlink:title="Proceedings">
<polygon fill="none" stroke="blue" stroke-width="2" points="317.75,-162 226.75,-162 226.75,-126 317.75,-126 317.75,-162"/>
<text text-anchor="middle" x="272.25" y="-138.2" font-family="Helvetica,sans-Serif" font-size="14.00" fill="blue">Proceedings</text>
</a>
</g>
</g>
<!-- paper&#45;&gt;proceedings -->
<g id="edge6" class="edge">
<title>paper&#45;&gt;proceedings</title>
<g id="a_edge6"><a xlink:href="https://www.wikidata.org/wiki/Property:P1433" xlink:title="published in">
<path fill="none" stroke="black" d="M429.5,-144C403.5,-144 362.8,-144 329.45,-144"/>
<polygon fill="black" stroke="black" points="329.51,-140.5 319.51,-144 329.51,-147.5 329.51,-140.5"/>
</a>
</g>
<g id="a_edge6&#45;label"><a xlink:href="https://www.wikidata.org/wiki/Property:P1433" xlink:title="published in">
<text text-anchor="middle" x="371.75" y="-145.7" font-family="Helvetica,sans-Serif" font-size="14.00">published in</text>
</a>
</g>
</g>
<!-- proceedings&#45;&gt;scholar -->
<g id="edge2" class="edge">
<title>proceedings&#45;&gt;scholar</title>
<g id="a_edge2"><a xlink:href="https://www.wikidata.org/wiki/Property:P98" xlink:title="editor">
<path fill="none" stroke="black" d="M318.1,-126.29C347.74,-114.59 386.28,-99.38 415.02,-88.03"/>
<polygon fill="black" stroke="black" points="416.09,-91.37 424.1,-84.45 413.52,-84.86 416.09,-91.37"/>
</a>
</g>
<g id="a_edge2&#45;label"><a xlink:href="https://www.wikidata.org/wiki/Property:P98" xlink:title="editor">
<text text-anchor="middle" x="371.75" y="-120.36" font-family="Helvetica,sans-Serif" font-size="14.00">editor</text>
</a>
</g>
</g>
<!-- proceedings&#45;&gt;publisher -->
<g id="edge1" class="edge">
<title>proceedings&#45;&gt;publisher</title>
<g id="a_edge1"><a xlink:href=" https://www.wikidata.org/wiki/Property:P123" xlink:title="publisher">
<path fill="none" stroke="black" d="M272.25,-125.59C272.25,-118.28 272.25,-109.69 272.25,-101.56"/>
<polygon fill="black" stroke="black" points="275.75,-101.68 272.25,-91.68 268.75,-101.68 275.75,-101.68"/>
</a>
</g>
<g id="a_edge1&#45;label"><a xlink:href=" https://www.wikidata.org/wiki/Property:P123" xlink:title="publisher">
<text text-anchor="middle" x="282.75" y="-102.2" font-family="Helvetica,sans-Serif" font-size="14.00">publisher</text>
</a>
</g>
</g>
<!-- event -->
<g id="node7" class="node">
<title>event</title>
<g id="a_node7"><a xlink:href="https://www.wikidata.org/wiki/Q2020153" xlink:title="Event">
<polygon fill="none" stroke="blue" stroke-width="2" points="71.38,-162 17.38,-162 17.38,-126 71.38,-126 71.38,-162"/>
<text text-anchor="middle" x="44.38" y="-138.2" font-family="Helvetica,sans-Serif" font-size="14.00" fill="blue">Event</text>
</a>
</g>
</g>
<!-- proceedings&#45;&gt;event -->
<g id="edge8" class="edge">
<title>proceedings&#45;&gt;event</title>
<g id="a_edge8"><a xlink:href="https://www.wikidata.org/wiki/Property:P4745" xlink:title="is proceedings of">
<path fill="none" stroke="blue" stroke-width="2" d="M226.35,-144C184.5,-144 122.76,-144 83.31,-144"/>
<polygon fill="blue" stroke="blue" stroke-width="2" points="84.85,-140.5 74.85,-144 84.85,-147.5 84.85,-140.5"/>
</a>
</g>
<g id="a_edge8&#45;label"><a xlink:href="https://www.wikidata.org/wiki/Property:P4745" xlink:title="is proceedings of">
<text text-anchor="middle" x="157.75" y="-145.7" font-family="Helvetica,sans-Serif" font-size="14.00" fill="blue">is proceedings of</text>
</a>
</g>
</g>
<!-- eventseries -->
<g id="node6" class="node">
<title>eventseries</title>
<g id="a_node6"><a xlink:href="https://www.wikidata.org/wiki/Q47258130" xlink:title="EventSeries">
<polygon fill="none" stroke="blue" stroke-width="2" points="88.75,-90 0,-90 0,-54 88.75,-54 88.75,-90"/>
<text text-anchor="middle" x="44.38" y="-66.2" font-family="Helvetica,sans-Serif" font-size="14.00" fill="blue">EventSeries</text>
</a>
</g>
</g>
<!-- event&#45;&gt;eventseries -->
<g id="edge7" class="edge">
<title>event&#45;&gt;eventseries</title>
<g id="a_edge7"><a xlink:href="https://www.wikidata.org/wiki/Property:P179" xlink:title="part of the series">
<path fill="none" stroke="blue" stroke-width="2" d="M44.38,-125.59C44.38,-118.28 44.38,-109.69 44.38,-101.56"/>
<polygon fill="blue" stroke="blue" stroke-width="2" points="47.88,-103.2 44.38,-93.2 40.88,-103.2 47.88,-103.2"/>
</a>
</g>
<g id="a_edge7&#45;label"><a xlink:href="https://www.wikidata.org/wiki/Property:P179" xlink:title="part of the series">
<text text-anchor="middle" x="54.88" y="-102.2" font-family="Helvetica,sans-Serif" font-size="14.00" fill="blue">part of the series</text>
</a>
</g>
</g>
</g>
</svg>
