<?xml version="1.0" encoding="UTF-8" standalone="no"?>
<!DOCTYPE svg PUBLIC "-//W3C//DTD SVG 1.1//EN"
 "http://www.w3.org/Graphics/SVG/1.1/DTD/svg11.dtd">
<!-- Generated by graphviz version 2.43.0 (0)
 -->
<!-- Title: s50 Pages: 1 -->
<svg width="635pt" height="305pt"
 viewBox="0.00 0.00 635.39 305.00" xmlns="http://www.w3.org/2000/svg" xmlns:xlink="http://www.w3.org/1999/xlink">
<g id="graph0" class="graph" transform="scale(1 1) rotate(0) translate(4 301)">
<title>s50</title>
<polygon fill="white" stroke="transparent" points="-4,4 -4,-301 631.39,-301 631.39,4 -4,4"/>
<!-- tpd -->
<g id="node1" class="node">
<title>tpd</title>
<ellipse fill="none" stroke="black" cx="266.39" cy="-192" rx="123.48" ry="18"/>
<text text-anchor="middle" x="266.39" y="-188.3" font-family="Times,serif" font-size="14.00">textprocessor document</text>
</g>
<!-- dpd -->
<g id="node2" class="node">
<title>dpd</title>
<ellipse fill="none" stroke="black" cx="124.39" cy="-105" rx="92.88" ry="18"/>
<text text-anchor="middle" x="124.39" y="-101.3" font-family="Times,serif" font-size="14.00">display document</text>
</g>
<!-- tpd&#45;&gt;dpd -->
<g id="edge2" class="edge">
<title>tpd&#45;&gt;dpd</title>
<path fill="none" stroke="black" d="M247.39,-174.17C235.1,-163.8 218.45,-150.68 202.39,-141 193.24,-135.48 183.07,-130.3 173.17,-125.7"/>
<polygon fill="black" stroke="black" points="174.37,-122.4 163.81,-121.48 171.49,-128.78 174.37,-122.4"/>
<text text-anchor="middle" x="317.39" y="-144.8" font-family="Times,serif" font-size="14.00">renders e.g. to PDF/HTML</text>
</g>
<!-- publisher -->
<g id="node5" class="node">
<title>publisher</title>
<ellipse fill="none" stroke="black" cx="124.39" cy="-18" rx="54.69" ry="18"/>
<text text-anchor="middle" x="124.39" y="-14.3" font-family="Times,serif" font-size="14.00">publisher</text>
</g>
<!-- dpd&#45;&gt;publisher -->
<g id="edge4" class="edge">
<title>dpd&#45;&gt;publisher</title>
<path fill="none" stroke="black" d="M64.78,-91.01C53.98,-85.93 44.05,-78.85 37.39,-69 25.3,-51.1 45.35,-38.8 69.23,-30.89"/>
<polygon fill="black" stroke="black" points="70.32,-34.21 78.88,-27.96 68.29,-27.51 70.32,-34.21"/>
<text text-anchor="middle" x="114.39" y="-57.8" font-family="Times,serif" font-size="14.00">submit for publishing</text>
</g>
<!-- scientist -->
<g id="node3" class="node">
<title>scientist</title>
<ellipse fill="none" stroke="black" cx="266.39" cy="-279" rx="50.09" ry="18"/>
<text text-anchor="middle" x="266.39" y="-275.3" font-family="Times,serif" font-size="14.00">scientist</text>
</g>
<!-- scientist&#45;&gt;tpd -->
<g id="edge1" class="edge">
<title>scientist&#45;&gt;tpd</title>
<path fill="none" stroke="black" d="M266.39,-260.8C266.39,-249.16 266.39,-233.55 266.39,-220.24"/>
<polygon fill="black" stroke="black" points="269.89,-220.18 266.39,-210.18 262.89,-220.18 269.89,-220.18"/>
<text text-anchor="middle" x="446.89" y="-231.8" font-family="Times,serif" font-size="14.00">writes findings with texprocessor e.g. LaTeX/Word</text>
</g>
<!-- community -->
<g id="node4" class="node">
<title>community</title>
<ellipse fill="none" stroke="black" cx="62.39" cy="-192" rx="62.29" ry="18"/>
<text text-anchor="middle" x="62.39" y="-188.3" font-family="Times,serif" font-size="14.00">community</text>
</g>
<!-- community&#45;&gt;dpd -->
<g id="edge3" class="edge">
<title>community&#45;&gt;dpd</title>
<path fill="none" stroke="black" d="M74.64,-174.21C83.59,-161.95 95.86,-145.11 105.98,-131.24"/>
<polygon fill="black" stroke="black" points="108.89,-133.19 111.96,-123.05 103.24,-129.07 108.89,-133.19"/>
<text text-anchor="middle" x="147.39" y="-144.8" font-family="Times,serif" font-size="14.00">reads findings</text>
</g>
<!-- publisher&#45;&gt;dpd -->
<g id="edge5" class="edge">
<title>publisher&#45;&gt;dpd</title>
<path fill="none" stroke="black" d="M162.86,-31.1C182.92,-39.64 201.4,-52.49 191.39,-69 188,-74.6 183.39,-79.34 178.16,-83.36"/>
<polygon fill="black" stroke="black" points="175.93,-80.64 169.52,-89.07 179.79,-86.47 175.93,-80.64"/>
<text text-anchor="middle" x="256.89" y="-57.8" font-family="Times,serif" font-size="14.00">prints/puts online</text>
</g>
</g>
</svg>
