<?xml version="1.0" encoding="UTF-8" standalone="no"?>
<!DOCTYPE svg PUBLIC "-//W3C//DTD SVG 1.1//EN"
 "http://www.w3.org/Graphics/SVG/1.1/DTD/svg11.dtd">
<!-- Generated by graphviz version 2.43.0 (0)
 -->
<!-- Title: workflow Pages: 1 -->
<svg width="497pt" height="663pt"
 viewBox="0.00 0.00 497.00 663.00" xmlns="http://www.w3.org/2000/svg" xmlns:xlink="http://www.w3.org/1999/xlink">
<g id="graph0" class="graph" transform="scale(1 1) rotate(0) translate(4 659)">
<title>workflow</title>
<polygon fill="white" stroke="transparent" points="-4,4 -4,-659 493,-659 493,4 -4,4"/>
<g id="clust1" class="cluster">
<title>cluster_collect</title>
<polygon fill="none" stroke="black" points="8,-290 8,-647 371,-647 371,-290 8,-290"/>
<text text-anchor="middle" x="189.5" y="-631.8" font-family="Times,serif" font-size="14.00">Metadata collection</text>
</g>
<g id="clust2" class="cluster">
<title>cluster_wikidata</title>
<polygon fill="none" stroke="black" points="73,-203 73,-255 193,-255 193,-203 73,-203"/>
</g>
<g id="clust3" class="cluster">
<title>cluster_ceur_ws</title>
<polygon fill="none" stroke="black" points="74,-8 74,-170 396,-170 396,-8 74,-8"/>
<text text-anchor="middle" x="235" y="-154.8" font-family="Times,serif" font-size="14.00">CEUR&#45;WS Operations</text>
</g>
<!-- metadata -->
<g id="node1" class="node">
<title>metadata</title>
<ellipse fill="none" stroke="black" cx="123" cy="-316" rx="91.78" ry="18"/>
<text text-anchor="middle" x="123" y="-312.3" font-family="Times,serif" font-size="14.00">Volume metadata</text>
</g>
<!-- wikidata -->
<g id="node9" class="node">
<title>wikidata</title>
<ellipse fill="none" stroke="black" cx="133" cy="-229" rx="51.99" ry="18"/>
<text text-anchor="middle" x="133" y="-225.3" font-family="Times,serif" font-size="14.00">Wikidata</text>
</g>
<!-- metadata&#45;&gt;wikidata -->
<g id="edge11" class="edge">
<title>metadata&#45;&gt;wikidata</title>
<path fill="none" stroke="black" d="M125.02,-297.8C126.39,-286.16 128.23,-270.55 129.8,-257.24"/>
<polygon fill="black" stroke="black" points="133.29,-257.52 130.98,-247.18 126.33,-256.7 133.29,-257.52"/>
<text text-anchor="middle" x="180" y="-268.8" font-family="Times,serif" font-size="14.00">metadata first</text>
</g>
<!-- homepage -->
<g id="node2" class="node">
<title>homepage</title>
<ellipse fill="none" stroke="black" cx="273" cy="-511" rx="58.49" ry="18"/>
<text text-anchor="middle" x="273" y="-507.3" font-family="Times,serif" font-size="14.00">homepage</text>
</g>
<!-- event -->
<g id="node3" class="node">
<title>event</title>
<ellipse fill="none" stroke="black" cx="232" cy="-403" rx="36.29" ry="18"/>
<text text-anchor="middle" x="232" y="-399.3" font-family="Times,serif" font-size="14.00">event</text>
</g>
<!-- homepage&#45;&gt;event -->
<g id="edge1" class="edge">
<title>homepage&#45;&gt;event</title>
<path fill="none" stroke="black" d="M250.07,-494.17C244.1,-488.82 238.4,-482.32 235,-475 228.77,-461.58 227.72,-445.15 228.36,-431.47"/>
<polygon fill="black" stroke="black" points="231.88,-431.45 229.18,-421.21 224.9,-430.9 231.88,-431.45"/>
<text text-anchor="middle" x="261" y="-453.3" font-family="Times,serif" font-size="14.00">extract</text>
</g>
<!-- editor -->
<g id="node4" class="node">
<title>editor</title>
<ellipse fill="none" stroke="black" cx="325" cy="-403" rx="38.19" ry="18"/>
<text text-anchor="middle" x="325" y="-399.3" font-family="Times,serif" font-size="14.00">editor</text>
</g>
<!-- homepage&#45;&gt;editor -->
<g id="edge2" class="edge">
<title>homepage&#45;&gt;editor</title>
<path fill="none" stroke="black" d="M281.35,-492.97C289.74,-475.87 302.77,-449.31 312.41,-429.66"/>
<polygon fill="black" stroke="black" points="315.58,-431.16 316.84,-420.64 309.29,-428.08 315.58,-431.16"/>
<text text-anchor="middle" x="332" y="-453.3" font-family="Times,serif" font-size="14.00">extract</text>
</g>
<!-- event&#45;&gt;metadata -->
<g id="edge6" class="edge">
<title>event&#45;&gt;metadata</title>
<path fill="none" stroke="black" d="M213.01,-387.19C196.26,-374.13 171.56,-354.87 152.28,-339.83"/>
<polygon fill="black" stroke="black" points="154.42,-337.06 144.38,-333.67 150.11,-342.58 154.42,-337.06"/>
</g>
<!-- editor&#45;&gt;metadata -->
<g id="edge9" class="edge">
<title>editor&#45;&gt;metadata</title>
<path fill="none" stroke="black" d="M297.34,-390.36C264.46,-376.53 209.11,-353.23 169.59,-336.6"/>
<polygon fill="black" stroke="black" points="170.48,-333.18 159.91,-332.53 167.77,-339.64 170.48,-333.18"/>
</g>
<!-- pdf -->
<g id="node5" class="node">
<title>pdf</title>
<ellipse fill="none" stroke="black" cx="129" cy="-598" rx="27" ry="18"/>
<text text-anchor="middle" x="129" y="-594.3" font-family="Times,serif" font-size="14.00">pdf</text>
</g>
<!-- paper -->
<g id="node6" class="node">
<title>paper</title>
<ellipse fill="none" stroke="black" cx="54" cy="-457" rx="37.89" ry="18"/>
<text text-anchor="middle" x="54" y="-453.3" font-family="Times,serif" font-size="14.00">paper</text>
</g>
<!-- pdf&#45;&gt;paper -->
<g id="edge3" class="edge">
<title>pdf&#45;&gt;paper</title>
<path fill="none" stroke="black" d="M105.6,-588.84C93.05,-583.25 78.47,-574.53 70,-562 54.71,-539.36 51.82,-507.69 52.07,-485.26"/>
<polygon fill="black" stroke="black" points="55.57,-485.18 52.4,-475.07 48.58,-484.95 55.57,-485.18"/>
<text text-anchor="middle" x="96" y="-550.8" font-family="Times,serif" font-size="14.00">extract</text>
</g>
<!-- author -->
<g id="node7" class="node">
<title>author</title>
<ellipse fill="none" stroke="black" cx="122" cy="-511" rx="41.69" ry="18"/>
<text text-anchor="middle" x="122" y="-507.3" font-family="Times,serif" font-size="14.00">author</text>
</g>
<!-- pdf&#45;&gt;author -->
<g id="edge4" class="edge">
<title>pdf&#45;&gt;author</title>
<path fill="none" stroke="black" d="M127.58,-579.8C126.63,-568.16 125.34,-552.55 124.24,-539.24"/>
<polygon fill="black" stroke="black" points="127.72,-538.85 123.41,-529.18 120.75,-539.43 127.72,-538.85"/>
<text text-anchor="middle" x="152" y="-550.8" font-family="Times,serif" font-size="14.00">extract</text>
</g>
<!-- ceur_ws -->
<g id="node10" class="node">
<title>ceur_ws</title>
<ellipse fill="none" stroke="black" cx="235" cy="-121" rx="57.39" ry="18"/>
<text text-anchor="middle" x="235" y="-117.3" font-family="Times,serif" font-size="14.00">CEUR&#45;WS</text>
</g>
<!-- pdf&#45;&gt;ceur_ws -->
<g id="edge13" class="edge">
<title>pdf&#45;&gt;ceur_ws</title>
<path fill="none" stroke="black" d="M155.56,-594.12C222.17,-586.16 391,-561.14 391,-512 391,-512 391,-512 391,-228 391,-204.92 392.46,-195.13 377,-178 355.72,-154.42 323.24,-140.64 294.71,-132.66"/>
<polygon fill="black" stroke="black" points="295.36,-129.21 284.8,-130.07 293.59,-135.98 295.36,-129.21"/>
<text text-anchor="middle" x="440" y="-355.8" font-family="Times,serif" font-size="14.00">camera ready</text>
</g>
<!-- paper&#45;&gt;metadata -->
<g id="edge8" class="edge">
<title>paper&#45;&gt;metadata</title>
<path fill="none" stroke="black" d="M41.2,-439.83C37.48,-434.2 33.91,-427.62 32,-421 23.51,-391.53 14.64,-377.28 32,-352 37.03,-344.68 43.82,-338.89 51.44,-334.31"/>
<polygon fill="black" stroke="black" points="53.46,-337.2 60.7,-329.47 50.22,-331 53.46,-337.2"/>
</g>
<!-- author&#45;&gt;metadata -->
<g id="edge7" class="edge">
<title>author&#45;&gt;metadata</title>
<path fill="none" stroke="black" d="M119.02,-492.94C115.42,-477.05 107.89,-453.67 93,-439 77.36,-423.59 59.38,-439.13 47,-421 37.98,-407.78 40.47,-399.61 47,-385 55.29,-366.45 71.42,-350.87 86.69,-339.32"/>
<polygon fill="black" stroke="black" points="88.96,-342 95.04,-333.33 84.87,-336.32 88.96,-342"/>
</g>
<!-- agreement -->
<g id="node8" class="node">
<title>agreement</title>
<ellipse fill="none" stroke="black" cx="117" cy="-403" rx="61.19" ry="18"/>
<text text-anchor="middle" x="117" y="-399.3" font-family="Times,serif" font-size="14.00">agreement</text>
</g>
<!-- author&#45;&gt;agreement -->
<g id="edge5" class="edge">
<title>author&#45;&gt;agreement</title>
<path fill="none" stroke="black" d="M121.2,-492.97C120.41,-476.38 119.21,-450.88 118.29,-431.43"/>
<polygon fill="black" stroke="black" points="121.79,-431.16 117.82,-421.34 114.79,-431.49 121.79,-431.16"/>
<text text-anchor="middle" x="149" y="-453.3" font-family="Times,serif" font-size="14.00">wait for</text>
</g>
<!-- agreement&#45;&gt;metadata -->
<g id="edge10" class="edge">
<title>agreement&#45;&gt;metadata</title>
<path fill="none" stroke="black" d="M118.21,-384.8C119.04,-373.16 120.14,-357.55 121.08,-344.24"/>
<polygon fill="black" stroke="black" points="124.57,-344.4 121.79,-334.18 117.59,-343.9 124.57,-344.4"/>
</g>
<!-- wikidata&#45;&gt;ceur_ws -->
<g id="edge12" class="edge">
<title>wikidata&#45;&gt;ceur_ws</title>
<path fill="none" stroke="black" d="M137.5,-210.96C140.83,-200.64 146.17,-187.65 154,-178 165.8,-163.46 182.32,-151.12 197.37,-141.75"/>
<polygon fill="black" stroke="black" points="199.23,-144.71 206.02,-136.58 195.64,-138.7 199.23,-144.71"/>
<text text-anchor="middle" x="265.5" y="-181.8" font-family="Times,serif" font-size="14.00">publication candidate snapshot</text>
</g>
<!-- ceur_ws&#45;&gt;ceur_ws -->
<g id="edge14" class="edge">
<title>ceur_ws&#45;&gt;ceur_ws</title>
<path fill="none" stroke="black" d="M286.66,-128.79C300.08,-128.31 310.19,-125.72 310.19,-121 310.19,-117.57 304.85,-115.26 296.79,-114.07"/>
<polygon fill="black" stroke="black" points="296.93,-110.57 286.66,-113.21 296.33,-117.55 296.93,-110.57"/>
<text text-anchor="middle" x="339.19" y="-117.3" font-family="Times,serif" font-size="14.00">preview</text>
</g>
<!-- ceur_ws_spt -->
<g id="node11" class="node">
<title>ceur_ws_spt</title>
<ellipse fill="none" stroke="black" cx="235" cy="-34" rx="153.27" ry="18"/>
<text text-anchor="middle" x="235" y="-30.3" font-family="Times,serif" font-size="14.00">CEUR&#45;WS single point of truth</text>
</g>
<!-- ceur_ws&#45;&gt;ceur_ws_spt -->
<g id="edge15" class="edge">
<title>ceur_ws&#45;&gt;ceur_ws_spt</title>
<path fill="none" stroke="black" d="M235,-102.8C235,-91.16 235,-75.55 235,-62.24"/>
<polygon fill="black" stroke="black" points="238.5,-62.18 235,-52.18 231.5,-62.18 238.5,-62.18"/>
<text text-anchor="middle" x="261.5" y="-73.8" font-family="Times,serif" font-size="14.00">publish</text>
</g>
</g>
</svg>
